<?xml version="1.0" ?>
<!-- Uploaded to: SVG Repo, www.svgrepo.com, Generator: SVG Repo Mixer Tools -->
<svg width="800px" height="800px" viewBox="0 0 24 24" xmlns="http://www.w3.org/2000/svg">
<defs>
<style>.cls-1{fill:#8d6de8;}.cls-2{fill:#a78eef;}.cls-3{fill:#6c2e7c;}</style>
</defs>
<g id="Icons">
<path class="cls-1" d="M13,18A5,5,0,0,1,3,18a4.919,4.919,0,0,1,.67-2.5,5,5,0,0,1,8.66,0A4.919,4.919,0,0,1,13,18Z"/>
<ellipse class="cls-2" cx="8" cy="15.5" rx="4.33" ry="2.5"/>
</g>
<g data-name="Layer 4" id="Layer_4">
<path class="cls-3" d="M14,3.815A10.022,10.022,0,0,0,21,7a1,1,0,0,0,0-2C16.641,5,13.884.529,13.857.485A1,1,0,0,0,12,1V13.54A5.992,5.992,0,1,0,14,18ZM8,22a4,4,0,1,1,4-4A4,4,0,0,1,8,22Z"/>
</g>
</svg>